<svg width="234.00000000000003" height="44" xmlns="http://www.w3.org/2000/svg" version="1.2">
    <g>
        <g id="svg_1" fill="#374836" stroke="null">
            <g transform="rotate(-33.4717 20.8322 20.689)" stroke="null"
                id="spiral-leaf-composition">
                <path stroke="#374836" id="svg_2" stroke-linecap="round" stroke-width="1.5"
                    fill="none"
                    d="m18.67139,23.28201q0,-3.45732 3.45732,-3.45732q3.45732,0 3.45732,3.45732q0,5.18597 -5.18597,5.18597q-6.91463,0 -6.91463,-6.91463q0,-8.64329 8.64329,-8.64329q10.37195,0 10.37195,10.37195q0,12.1006 -12.1006,12.1006q-13.82926,0 -13.82926,-13.82926q0,-15.55792 15.55792,-15.55792" />
                <!-- Inner spiral accent -->
                <path stroke="#374836" id="svg_3" stroke-linecap="round" stroke-width="1.2"
                    fill="none"
                    d="m18.67139,23.28201q0,-2.59299 2.59299,-2.59299q2.59299,0 2.59299,2.59299q0,3.45732 -3.45732,3.45732q-4.32164,0 -4.32164,-4.32164" />
                <!-- Leaf 1 - integrated at spiral start -->
                <path stroke="null" id="svg_4" fill="#374836"
                    d="m18.49853,23.10915q-1.90152,-0.86433 -2.59299,-2.07439q0.69146,-0.5186 1.38293,0.17287q0.5186,-0.5186 1.21006,1.90152z" />
                <!-- Leaf 2 - along spiral curve -->
                <path stroke="null" id="svg_5" fill="#374836"
                    d="m24.72169,20.17043q1.21006,-1.21006 2.24726,-1.72866q0.34573,0.69146 -0.5186,1.38293q0.17287,0.69146 -1.72866,0.34573z" />
                <!-- Leaf 3 - outer spiral -->
                <path stroke="null" id="svg_6" fill="#374836"
                    d="m32.15492,22.41768q1.72866,-1.21006 2.76585,-1.90152q0.5186,0.69146 -0.5186,1.72866q0.17287,0.86433 -2.24726,0.17287z" />
                <!-- Leaf 4 - bottom accent -->
                <path stroke="null" id="svg_7" fill="#374836"
                    d="m14.34975,29.33232q-1.21006,1.21006 -2.24726,2.24726q-0.69146,-0.5186 0.34573,-1.72866q-0.34573,-0.86433 1.90152,-0.5186z" />
                <!-- Small leaf accent -->
                <path stroke="null" id="svg_8" fill="#374836"
                    d="m22.12871,13.2558q1.03719,-1.03719 1.72866,-1.72866q0.34573,0.5186 -0.34573,1.21006q0.17287,0.5186 -1.38293,0.5186z" />
            </g>
            <path stroke-linejoin=" round" stroke-width=" 0.4px" stroke=" #374836" class="s0" style="transform: scaleY(1.2); transform-box: fill-box; transform-origin: center;"
                d="m176.99,15.401c2.694,-0.125 7.209,-0.374 9.268,1.123c3.01,2.31 3.01,6.179 0.238,8.675c-2.773,1.747 -6.179,1.373 -9.505,1.31c-0.159,-1.684 0,-4.243 -0.08,-5.99c0,-1.061 -0.079,-4.244 0.08,-5.118l-0.001,0zm1.347,10.297c3.01,-0.062 4.832,0.187 7.287,-1.31c2.06,-2.06 2.06,-5.554 -0.713,-7.302c-1.821,-1.186 -4.435,-0.874 -6.653,-0.811l0.079,9.423zm44.277,-7.488c0.555,0.124 0.713,0.187 0.792,0.623c-0.554,0.5 -1.188,0.188 -1.98,0.625c0.476,1.56 1.347,2.184 -0.158,3.806c-1.188,1.373 -5.307,0.188 -5.07,1.56c1.03,0.874 6.496,0.188 7.208,2.122c0.555,1.436 -1.821,2.497 -3.168,2.871c-1.98,0.312 -6.257,0.25 -6.178,-2.122c0.08,-1.186 0.871,-1.123 1.822,-1.747l-0.08,-0.25q-0.396,-0.25 -0.87,-0.561c-0.16,-0.874 1.029,-1.311 1.029,-1.436c-0.238,-0.811 -1.584,-1.435 -1.347,-2.62c0.159,-0.687 0.792,-1.374 1.505,-1.81c1.188,-0.687 3.09,-0.5 4.515,-0.313c0.792,-0.374 1.11,-0.499 1.98,-0.749l0,0.001zm-2.217,10.67c0.712,-0.311 1.425,-0.623 1.663,-1.247c-0.158,-1.56 -3.881,-1.498 -5.386,-1.436c-3.565,1.81 0.396,3.37 3.723,2.684l0,-0.001zm-1.268,-5.616c1.268,-0.25 2.139,-1.248 1.822,-2.309c-0.317,-1.06 -1.663,-1.685 -3.01,-1.435s-2.138,1.31 -1.822,2.309c0.317,1.06 1.664,1.685 3.01,1.435zm-68.277,-8.3c0.475,0.063 0.554,0.063 0.871,0.25c0.238,0.437 0.238,10.36 0.08,11.17c-0.317,0.125 -0.397,0.125 -0.793,0.063c-0.396,-0.312 -0.316,-0.562 -0.316,-1.123c-1.347,0.187 -1.664,2.496 -5.783,0.873c-4.752,-3.057 0.476,-10.546 5.703,-6.178c0.08,-1.06 -0.158,-4.306 0.238,-5.055zm-2.93,10.921c3.484,-0.873 2.772,-2.558 2.613,-4.93c-1.03,-1.06 -1.742,-1.435 -3.485,-1.31c-4.119,1.248 -3.327,6.365 0.871,6.24l0.001,0zm-43.644,-7.051c2.614,-0.25 4.277,0.312 5.227,2.433q0.476,0.75 0,1.56c-0.712,0.5 -6.099,0.25 -7.366,0.25c0.792,2.122 1.743,3.058 4.753,2.621c0.792,-0.312 1.267,-0.686 2.138,-0.437l0,0.25c-0.95,1.31 -3.723,1.435 -5.307,0.936c-2.693,-0.874 -3.485,-3.62 -2.376,-5.554c0.634,-1.123 1.505,-1.623 2.93,-2.06l0.001,0.001zm-2.139,3.37l6.178,0c-0.396,-1.873 -1.109,-2.871 -3.802,-2.56l-0.158,0c-1.584,0.687 -1.743,1.249 -2.218,2.56zm-39.129,-3.495c3.723,-0.188 4.674,1.81 4.753,4.306c-1.822,0.125 -5.545,0.062 -7.446,0.062q0.08,0.375 0.238,0.687c0.792,1.997 2.535,2.371 4.91,1.747c0.634,-0.312 1.03,-0.686 1.743,-0.312c0.238,1.56 -4.514,1.872 -6.02,0.998c-3.485,-2.059 -2.772,-6.802 1.822,-7.488zm-2.614,3.494l6.02,0c-0.396,-1.934 -0.95,-2.745 -3.722,-2.558c-1.585,0.561 -2.06,1.186 -2.298,2.558zm133.307,-3.369c2.773,-0.188 4.595,0.312 5.387,2.683q0.158,0.686 -0.317,1.31c-0.792,0.375 -5.782,0.25 -7.208,0.25c0.792,2.184 1.822,3.12 4.832,2.621c0.712,-0.374 1.188,-0.749 1.98,-0.5l0.079,0.25c-0.713,1.311 -4.04,1.56 -5.386,1c-4.119,-1.686 -3.565,-6.304 0.633,-7.615l0,0.001zm1.98,3.37l2.14,0c-0.397,-1.935 -1.03,-2.871 -3.882,-2.56c-1.742,0.687 -1.9,1.187 -2.376,2.622q2.06,-0.063 4.119,-0.063l-0.001,0.001zm-37.861,-3.37c2.931,-0.188 4.674,0.374 5.307,2.933q0.159,0.624 -0.237,1.123c-0.872,0.374 -5.862,0.187 -7.208,0.187c0.792,2.247 1.742,3.183 4.831,2.621c0.713,-0.374 1.188,-0.749 1.98,-0.5l0.08,0.188c-0.792,1.436 -3.565,1.56 -5.149,1.123q-1.822,-0.561 -2.614,-1.997c-1.267,-2.309 0,-4.68 3.01,-5.678zm2.06,3.432l2.06,0c-0.555,-1.935 -1.11,-2.87 -3.882,-2.621c-1.267,0.499 -1.743,0.873 -2.218,1.997q-0.08,0.312 -0.238,0.624l4.278,0zm-30.892,-3.495l0.238,0c5.386,-0.25 4.277,2.559 4.436,5.617c0.08,0.624 0.317,1.248 0.396,1.934c-0.317,0.312 -0.159,0.25 -0.634,0.375q-0.871,-0.437 -0.871,-1.248l0,-0.125c-1.901,1.373 -3.644,1.934 -5.94,0.749c-0.476,-0.375 -0.951,-1.061 -0.872,-1.56c0.08,-2.372 4.673,-2.497 6.654,-2.56c-0.476,-4.555 -3.882,-1.122 -5.941,-1.871c-0.317,-0.562 1.98,-1.186 2.535,-1.31l-0.001,-0.001zm-0.158,7.114c1.743,-0.062 2.218,-0.25 3.406,-1.248c0.159,-0.749 0.159,-1.185 0.159,-1.997l-1.664,0.063c-1.267,0.187 -2.455,0.312 -3.247,1.185c-0.95,0.999 0.316,1.685 1.346,1.997zm-55.208,-7.176c4.594,-0.063 3.485,3.182 3.644,5.616c0,0.874 0.713,1.748 0,2.31c-0.713,0 -0.95,-0.812 -1.11,-1.249q-0.316,0.25 -0.712,0.5c-1.822,1.248 -4.198,1.123 -5.703,-0.313c-1.267,-3.37 3.327,-3.557 6.337,-3.62c-0.634,-4.867 -4.832,-0.686 -5.862,-1.871c0.238,-1.124 2.218,-1.249 3.406,-1.373zm-1.742,6.99c2.138,0.374 2.693,-0.063 4.118,-1.249c0.08,-0.5 0.159,-1.248 0,-1.685q-0.237,-0.062 -0.475,-0.062c-1.267,0.062 -4.752,0.312 -4.752,1.872c0,0.374 0.633,0.874 1.109,1.123l0,0.001zm45.544,-10.547c1.743,-0.063 4.753,-0.063 5.545,1.372c0.158,0.25 0.079,0.188 0,0.437c-0.95,0.188 -1.268,-0.187 -2.139,-0.499c-7.445,-2.496 -10.851,6.428 -4.594,8.924c1.901,0.749 3.96,0.5 5.94,-0.062c-0.079,-0.812 0.16,-2.933 -0.237,-3.495l-0.554,-0.062c-0.872,0 -1.901,0.124 -2.456,-0.312l0.08,-0.375c0.712,-0.374 3.247,-0.25 4.356,-0.187c0.158,0.936 0.475,3.932 -0.159,4.743q-0.633,0.749 -1.821,0.873c-7.684,1.373 -12.278,-3.869 -8.476,-9.11c0.872,-1.249 2.693,-1.935 4.515,-2.247zm-72.237,0.062q1.504,-0.062 3.01,0.25q1.188,0.187 1.821,0.936c0,0.374 0.08,0.25 -0.158,0.561c-0.396,0.063 -0.95,-0.124 -1.347,-0.25c-7.604,-2.745 -11.089,5.118 -5.703,8.488c1.347,0.811 3.406,0.686 5.07,0.374c0.712,-0.374 1.267,-0.81 2.217,-0.624l0.159,0.188c-0.713,1.997 -6.812,1.934 -8.713,0.624c-4.753,-3.433 -3.327,-9.86 3.644,-10.547zm120.475,3.557c0.475,0 0.475,0 0.95,0.125c0.476,0.624 0,0.562 0.317,1.123c0.713,-0.187 1.347,-0.873 2.139,-1.123c1.663,-0.562 3.406,-0.063 4.119,1.186c0.633,0.998 1.109,6.178 -0.08,6.552l-0.158,0c-0.871,-0.749 -0.554,-3.744 -0.554,-4.93c-0.08,-0.936 -0.317,-1.622 -1.664,-1.997c-1.426,-0.374 -3.406,0.437 -3.643,1.685c-0.476,1.623 0.158,3.308 -0.238,4.868q-0.158,0.374 -0.634,0.5c-0.871,-0.188 -0.713,-7.178 -0.554,-7.989zm59.96,0c0.396,0 0.555,0 0.95,0.125c0.476,0.562 0.08,0.312 0.397,0.998c1.188,-0.748 1.9,-1.248 3.564,-1.248c2.297,-0.062 3.248,2.247 3.09,3.682c-0.08,0.874 0.316,3.557 -0.238,4.181c-0.396,0.063 -0.396,0.063 -0.792,-0.062c-0.317,-0.437 -0.159,-4.244 -0.238,-5.055c-0.554,-2.559 -3.564,-2.184 -5.307,-0.5c-0.238,1.374 0.158,4.806 -0.554,5.555c-0.476,0.187 -0.238,0.125 -0.713,0.062c-0.238,-0.374 -0.317,-7.301 -0.159,-7.738zm-21.861,-0.062c1.109,-0.063 3.881,0.062 3.723,1.31c-0.872,0.5 -3.644,-1.435 -4.832,0.063c-1.901,2.433 5.228,1.934 5.307,4.18c0,1.873 -1.663,2.31 -3.723,2.497c-1.584,0 -2.376,-0.374 -3.485,-1.186l0,-0.373c0.713,-0.125 3.09,0.562 4.198,0.686c0.475,-0.124 1.109,-0.312 1.347,-0.624c1.98,-2.496 -5.07,-1.81 -5.307,-4.118c-0.159,-1.623 1.109,-2.185 2.772,-2.434l0,-0.001zm-108.594,6.802c0.554,-1.123 2.851,-5.991 3.723,-6.677c0.396,-0.063 0.237,-0.063 0.633,0.124q0.08,0.562 -0.237,1.124q-1.03,1.934 -1.98,3.806c-0.476,0.874 -1.11,2.497 -2.377,2.746c-1.109,-0.561 -3.485,-5.803 -4.119,-7.052c-0.237,-0.436 0,-0.561 0.238,-0.873l0.554,0.124c0.713,0.562 3.01,5.492 3.565,6.678zm-14.02,-9.111l0.792,0.062c0.634,0.5 0.396,1.498 0.396,2.434c0.792,0 2.297,-0.187 2.535,0.5c-0.713,0.56 -1.664,0.436 -2.614,0.374c0.237,1.373 -0.555,5.055 0.792,5.928c1.03,0.25 1.346,-0.374 2.376,0.25c0,0.062 -0.237,0.25 -0.237,0.25c-5.466,2.308 -4.12,-4.057 -4.12,-6.428c-0.87,0 -1.346,0.124 -1.821,-0.437l0.158,-0.187c0.476,-0.312 1.03,-0.25 1.664,-0.25q0,-1.248 0.079,-2.496zm-26.931,3.931c0.634,-0.624 1.268,-1.31 2.297,-1.56c0.792,-0.125 1.664,-0.062 1.743,0.624c-1.03,1.123 -3.565,-0.686 -4.04,2.808c-0.079,0.812 0.396,4.244 -0.713,4.431c-0.95,-0.624 -0.792,-7.426 -0.475,-7.863c0.396,0 0.555,0 0.871,0.25q0.396,0.561 0.317,1.31zm83.882,0.063c0.792,-0.874 2.297,-2.185 3.88,-1.373q0.318,0.187 0.238,0.499c-0.554,0.312 -1.505,0.187 -2.218,0.187c-1.108,0.687 -1.504,1.124 -1.742,2.247c-0.08,0.686 0.08,4.243 -0.396,4.555c-0.475,-0.062 -0.634,0 -0.871,-0.124c-0.08,-0.75 -0.238,-7.177 0,-7.614c0.633,0.063 0.475,-0.062 0.95,0.25c0.317,0.312 0.158,0.936 0.158,1.373l0.001,0zm72.633,-1.685c0.238,0.062 0.95,0.187 0.95,0.312c0.16,1.497 0.555,6.365 0,7.613c-0.475,0 -0.554,0 -1.029,-0.125c-0.238,-0.624 -0.158,-7.426 0.08,-7.8l-0.001,0zm-123.327,0.062c0.555,0.063 0.713,0 1.03,0.25c0.159,0.811 0.238,6.927 -0.08,7.55c-0.474,0 -0.633,0 -1.029,-0.186c-0.158,-0.375 -0.079,-6.99 0.08,-7.614l-0.001,0z"
                id="text" />
            <path id="svg_9" class="s0"
                d="m210.812,15.65q0.792,-0.186 1.268,0.375q0.317,0.624 -0.396,0.999q-0.476,0.187 -0.95,-0.063q-0.476,-0.25 -0.476,-0.686q0.08,-0.437 0.554,-0.624l0,-0.001zm-123.089,-0.062q0.792,-0.124 1.11,0.437q0.158,0.624 -0.555,0.936q-0.476,0.188 -0.95,-0.124q-0.476,-0.25 -0.318,-0.687q0.159,-0.437 0.713,-0.562z" />
        </g>
    </g>
</svg>