<svg width="234" height="44" xmlns="http://www.w3.org/2000/svg" version="1.2">
  <title>Layer 1</title>
  <g stroke="null" fill="#374836">
    <path id="logo"
      d="M25.783.05c.079.374-.555 2.745-.634 3.307q-.475 3.307.713 6.49c.871 2.247 2.218 4.119 3.881 6.116 3.96 4.743 5.465 7.988 4.436 13.604-.872 2.871-2.297 5.18-5.545 6.74-4.515 2.184-11.01 1.248-13.544-2.434-2.06-2.995-1.426-7.488-1.11-10.796 5.228-.998 8.872-2.62 12.436-5.866v-.187q-.713.499-1.505 1.06c-2.772 2.06-6.89 3.558-10.693 4.12.396-2.185 1.03-3.932 1.743-6.054 2.534-.562 6.574-1.685 8.317-3.308-.238 0-.713.25-.95.437-2.298 1.186-4.357 1.748-7.05 2.122.396-1.248 1.03-2.746 1.742-3.931.95-.25 3.96-.999 4.515-1.685-1.426.312-2.455.81-4.277 1.123Q19.92 7.85 21.98 4.917c.316-.437 1.109-1.248 1.188-1.747-1.188.748-5.466 7.363-6.178 8.861-1.505-1.622-1.743-2.122-2.614-3.931-.159.624.792 2.433 1.188 2.995q.475.749 1.188 1.373c-1.267 1.997-1.901 3.557-2.772 5.679-2.377-1.935-3.565-3.432-4.674-5.991l-.079.062c.08 1.873 2.693 5.305 4.436 6.74-.872 2.933-1.268 4.431-1.584 7.427-2.852-1.373-5.307-3.433-6.97-5.68-.476-.561-.872-1.372-1.268-1.996-.158.561 1.267 2.62 1.663 3.12 1.585 2.309 3.96 3.932 6.495 5.554.08 1.935.238 3.058.634 4.993-.238.124-.158.124-.475.062-2.376-1.06-4.594-2.06-6.574-3.62-.555-.436-2.06-1.997-2.456-2.246 1.267 1.934 5.782 5.741 8.475 6.365.317.188 1.03.375 1.426.562 1.822 3.557 3.564 6.053 7.366 8.674q.634.375.555.999l-.159.125c-1.98 0-5.465-4.306-6.574-5.554-4.91-1.436-10.06-4.369-12.04-8.238C-4.632 16.587 12.873 4.667 25.784.049zm-1.585 36.507c4.594-.312 8.08-3.432 7.684-7.052s-4.436-6.303-9.03-6.053c-4.673.312-8.159 3.494-7.762 7.114.316 3.62 4.435 6.303 9.108 5.99z"
      class="s0" />
    <path
      d="M22.06 25.698c1.9-.374 3.96.063 5.386 1.124 1.346 1.123 1.9 2.683 1.346 4.18-.475 1.498-2.059 2.684-3.96 3.059-2.93.561-5.94-.812-6.653-3.12-.792-2.247.95-4.619 3.88-5.243zm1.98 7.489c2.376-.25 4.04-1.935 3.723-3.744-.317-1.873-2.535-3.12-4.832-2.871-2.376.25-3.96 1.934-3.643 3.744.316 1.81 2.455 3.058 4.752 2.87z"
      class="s0" />
    <path
      d="M22.693 28.007q1.426-.374 2.456.375 1.03.81.792 1.872-.396 1.123-1.822 1.435c-1.267.25-2.614-.312-3.01-1.31-.317-.999.317-2.06 1.584-2.372zm1.189 2.808c.712-.124 1.188-.624 1.03-1.185-.16-.562-.793-.936-1.506-.811q-.792.062-1.109.686-.237.562.317 1.06.555.438 1.268.25z"
      class="s0" />
    <path opacity=".02"
      d="M34.179 29.567c.475.375.396.874.237 1.31-1.98 5.867-9.425 8.675-16.554 6.054-1.664-.624-2.297-2.309-3.96-2.558l.079.25.316-.063-.079.437c1.03.374.317.499.713.998l.317-.062c0 1.81 6.574 6.053 6.574 7.177q-.396.499-1.03.624c-2.217.436-5.069-3.495-6.415-4.618-.159-.125-.396-.874-.555-.937q-3.406-1.185-6.574-2.683c-.792-.374-.713-.749-1.663-1.31-1.98-1.186-3.723-3.37-4.436-5.18l-.396-.063c-.238-.312-.475-1.747-.555-2.184C-.91 19.645 2.654 13.53 8.911 8.536c1.743-1.372 3.96-2.683 5.466-4.18l.475.062c1.03-.375 2.376-1.436 3.406-1.935.158 0 1.03 0 1.03-.062.158-.687.554-.312 1.108-.437.238-.063.08-.375.238-.437C22.06 1.11 24.278-.2 25.783.049 12.872 4.667-4.633 16.587 2.179 29.505c1.98 3.87 7.128 6.802 12.04 8.238 1.108 1.248 4.593 5.554 6.573 5.554l.159-.125q.08-.624-.555-.999c-3.802-2.62-5.544-5.117-7.366-8.674-.396-.187-1.109-.374-1.426-.562.713.063.713.188 1.426.25l.08-.187a3.2 3.2 0 0 0-.951-.437v-.125c.317.063.237.063.475-.062-.396-1.935-.554-3.058-.634-4.993-2.534-1.622-4.91-3.245-6.495-5.554-.396-.5-1.821-2.559-1.663-3.12.396.624.792 1.435 1.267 1.997 1.664 2.246 4.12 4.306 6.97 5.679.317-2.996.713-4.494 1.585-7.427-1.743-1.435-4.357-4.867-4.436-6.74l.08-.062c1.108 2.559 2.296 4.056 4.673 5.991.87-2.122 1.505-3.682 2.772-5.679q-.713-.624-1.188-1.373c-.396-.562-1.347-2.371-1.188-2.995.87 1.81 1.109 2.309 2.614 3.931.712-1.498 4.99-8.113 6.178-8.861-.08.499-.872 1.31-1.188 1.747q-2.06 2.933-3.723 5.99c1.822-.311 2.851-.81 4.277-1.122-.554.686-3.564 1.435-4.515 1.685-.713 1.185-1.346 2.683-1.742 3.931 2.693-.374 4.752-.936 7.05-2.122.237-.187.712-.436.95-.436-1.743 1.622-5.783 2.745-8.317 3.307-.713 2.122-1.347 3.87-1.743 6.053 3.802-.561 7.921-2.059 10.693-4.118q.792-.562 1.505-1.061v.187c-3.564 3.245-7.208 4.868-12.435 5.866-.317 3.308-.95 7.801 1.109 10.796 2.534 3.682 9.03 4.619 13.544 2.434 3.248-1.56 4.673-3.869 5.545-6.74zm-21.07-3.682c0-.748.08-2.371.396-2.995q.317-.187.713-.312v-.125c-.554-.187-.475-.062-.633-.437.079-.873.792-1.31.237-1.81-.475 1.249-1.346 4.68-.871 5.991l.158-.062z"
      class="s1" />
    <path id="text" style="transform: scaleY(1.3); transform-box: fill-box; transform-origin: center; stroke: #374836; stroke-width: 0.4px; stroke-linejoin: round;"
      d="M176.99 15.401c2.694-.125 7.209-.374 9.268 1.123 3.01 2.31 3.01 6.179.238 8.675-2.773 1.747-6.179 1.373-9.505 1.31-.159-1.684 0-4.243-.08-5.99 0-1.061-.079-4.244.08-5.118zm1.347 10.297c3.01-.062 4.832.187 7.287-1.31 2.06-2.06 2.06-5.554-.713-7.302-1.821-1.186-4.435-.874-6.653-.811zm44.277-7.488c.555.124.713.187.792.623-.554.5-1.188.188-1.98.625.476 1.56 1.347 2.184-.158 3.806-1.188 1.373-5.307.188-5.07 1.56 1.03.874 6.496.188 7.208 2.122.555 1.436-1.821 2.497-3.168 2.871-1.98.312-6.257.25-6.178-2.122.08-1.186.871-1.123 1.822-1.747l-.08-.25q-.396-.25-.87-.561c-.16-.874 1.029-1.311 1.029-1.436-.238-.811-1.584-1.435-1.347-2.62.159-.687.792-1.374 1.505-1.81 1.188-.687 3.09-.5 4.515-.313.792-.374 1.11-.499 1.98-.749zm-2.217 10.67c.712-.311 1.425-.623 1.663-1.247-.158-1.56-3.881-1.498-5.386-1.436-3.565 1.81.396 3.37 3.723 2.684zm-1.268-5.616c1.268-.25 2.139-1.248 1.822-2.309-.317-1.06-1.663-1.685-3.01-1.435s-2.138 1.31-1.822 2.309c.317 1.06 1.664 1.685 3.01 1.435zm-68.277-8.3c.475.063.554.063.871.25.238.437.238 10.36.08 11.17-.317.125-.397.125-.793.063-.396-.312-.316-.562-.316-1.123-1.347.187-1.664 2.496-5.783.873-4.752-3.057.476-10.546 5.703-6.178.08-1.06-.158-4.306.238-5.055zm-2.93 10.921c3.484-.873 2.772-2.558 2.613-4.93-1.03-1.06-1.742-1.435-3.485-1.31-4.119 1.248-3.327 6.365.871 6.24zm-43.644-7.051c2.614-.25 4.277.312 5.227 2.433q.476.75 0 1.56c-.712.5-6.099.25-7.366.25.792 2.122 1.743 3.058 4.753 2.621.792-.312 1.267-.686 2.138-.437v.25c-.95 1.31-3.723 1.435-5.307.936-2.693-.874-3.485-3.62-2.376-5.554.634-1.123 1.505-1.623 2.93-2.06zm-2.139 3.37h6.178c-.396-1.873-1.109-2.871-3.802-2.56h-.158c-1.584.687-1.743 1.249-2.218 2.56zM63.01 18.709c3.723-.188 4.674 1.81 4.753 4.306-1.822.125-5.545.062-7.446.062q.08.375.238.687c.792 1.997 2.535 2.371 4.91 1.747.634-.312 1.03-.686 1.743-.312.238 1.56-4.514 1.872-6.02.998-3.485-2.059-2.772-6.802 1.822-7.488zm-2.614 3.494h6.02c-.396-1.934-.95-2.745-3.722-2.558-1.585.561-2.06 1.186-2.298 2.558zm133.307-3.369c2.773-.188 4.595.312 5.387 2.683q.158.686-.317 1.31c-.792.375-5.782.25-7.208.25.792 2.184 1.822 3.12 4.832 2.621.712-.374 1.188-.749 1.98-.5l.079.25c-.713 1.311-4.04 1.56-5.386 1-4.119-1.686-3.565-6.304.633-7.615zm1.98 3.37h2.14c-.397-1.935-1.03-2.871-3.882-2.56-1.742.687-1.9 1.187-2.376 2.622q2.06-.063 4.119-.063zm-37.861-3.37c2.931-.188 4.674.374 5.307 2.933q.159.624-.237 1.123c-.872.374-5.862.187-7.208.187.792 2.247 1.742 3.183 4.831 2.621.713-.374 1.188-.749 1.98-.5l.08.188c-.792 1.436-3.565 1.56-5.149 1.123q-1.822-.561-2.614-1.997c-1.267-2.309 0-4.68 3.01-5.678zm2.06 3.432h2.06c-.555-1.935-1.11-2.87-3.882-2.621-1.267.499-1.743.873-2.218 1.997q-.08.312-.238.624zm-30.892-3.495h.238c5.386-.25 4.277 2.559 4.436 5.617.08.624.317 1.248.396 1.934-.317.312-.159.25-.634.375q-.871-.437-.871-1.248v-.125c-1.901 1.373-3.644 1.934-5.94.749-.476-.375-.951-1.061-.872-1.56.08-2.372 4.673-2.497 6.654-2.56-.476-4.555-3.882-1.122-5.941-1.871-.317-.562 1.98-1.186 2.535-1.31zm-.158 7.114c1.743-.062 2.218-.25 3.406-1.248.159-.749.159-1.185.159-1.997l-1.664.063c-1.267.187-2.455.312-3.247 1.185-.95.999.316 1.685 1.346 1.997zm-55.208-7.176c4.594-.063 3.485 3.182 3.644 5.616 0 .874.713 1.748 0 2.31-.713 0-.95-.812-1.11-1.249q-.316.25-.712.5c-1.822 1.248-4.198 1.123-5.703-.313-1.267-3.37 3.327-3.557 6.337-3.62-.634-4.867-4.832-.686-5.862-1.871.238-1.124 2.218-1.249 3.406-1.373zm-1.742 6.99c2.138.374 2.693-.063 4.118-1.249.08-.5.159-1.248 0-1.685q-.237-.062-.475-.062c-1.267.062-4.752.312-4.752 1.872 0 .374.633.874 1.109 1.123zm45.544-10.547c1.743-.063 4.753-.063 5.545 1.372.158.25.079.188 0 .437-.95.188-1.268-.187-2.139-.499-7.445-2.496-10.851 6.428-4.594 8.924 1.901.749 3.96.5 5.94-.062-.079-.812.16-2.933-.237-3.495l-.554-.062c-.872 0-1.901.124-2.456-.312l.08-.375c.712-.374 3.247-.25 4.356-.187.158.936.475 3.932-.159 4.743q-.633.749-1.821.873c-7.684 1.373-12.278-3.869-8.476-9.11.872-1.249 2.693-1.935 4.515-2.247zm-72.237.062q1.504-.062 3.01.25 1.188.187 1.821.936c0 .374.08.25-.158.561-.396.063-.95-.124-1.347-.25-7.604-2.745-11.089 5.118-5.703 8.488 1.347.811 3.406.686 5.07.374.712-.374 1.267-.81 2.217-.624l.159.188c-.713 1.997-6.812 1.934-8.713.624-4.753-3.433-3.327-9.86 3.644-10.547zm120.475 3.557c.475 0 .475 0 .95.125.476.624 0 .562.317 1.123.713-.187 1.347-.873 2.139-1.123 1.663-.562 3.406-.063 4.119 1.186.633.998 1.109 6.178-.08 6.552h-.158c-.871-.749-.554-3.744-.554-4.93-.08-.936-.317-1.622-1.664-1.997-1.426-.374-3.406.437-3.643 1.685-.476 1.623.158 3.308-.238 4.868q-.158.374-.634.5c-.871-.188-.713-7.178-.554-7.989zm59.96 0c.396 0 .555 0 .95.125.476.562.08.312.397.998 1.188-.748 1.9-1.248 3.564-1.248 2.297-.062 3.248 2.247 3.09 3.682-.08.874.316 3.557-.238 4.181-.396.063-.396.063-.792-.062-.317-.437-.159-4.244-.238-5.055-.554-2.559-3.564-2.184-5.307-.5-.238 1.374.158 4.806-.554 5.555-.476.187-.238.125-.713.062-.238-.374-.317-7.301-.159-7.738zm-21.861-.062c1.109-.063 3.881.062 3.723 1.31-.872.5-3.644-1.435-4.832.063-1.901 2.433 5.228 1.934 5.307 4.18 0 1.873-1.663 2.31-3.723 2.497-1.584 0-2.376-.374-3.485-1.186V25.2c.713-.125 3.09.562 4.198.686.475-.124 1.109-.312 1.347-.624 1.98-2.496-5.07-1.81-5.307-4.118-.159-1.623 1.109-2.185 2.772-2.434zM95.169 25.511c.554-1.123 2.851-5.991 3.723-6.677.396-.063.237-.063.633.124q.08.562-.237 1.124-1.03 1.934-1.98 3.806c-.476.874-1.11 2.497-2.377 2.746-1.109-.561-3.485-5.803-4.119-7.052-.237-.436 0-.561.238-.873l.554.124c.713.562 3.01 5.492 3.565 6.678zM81.149 16.4l.792.062c.634.5.396 1.498.396 2.434.792 0 2.297-.187 2.535.5-.713.56-1.664.436-2.614.374.237 1.373-.555 5.055.792 5.928 1.03.25 1.346-.374 2.376.25 0 .062-.237.25-.237.25-5.466 2.308-4.12-4.057-4.12-6.428-.87 0-1.346.124-1.821-.437l.158-.187c.476-.312 1.03-.25 1.664-.25q0-1.248.079-2.496zm-26.931 3.931c.634-.624 1.268-1.31 2.297-1.56.792-.125 1.664-.062 1.743.624-1.03 1.123-3.565-.686-4.04 2.808-.079.812.396 4.244-.713 4.431-.95-.624-.792-7.426-.475-7.863.396 0 .555 0 .871.25q.396.561.317 1.31zm83.882.063c.792-.874 2.297-2.185 3.88-1.373q.318.187.238.499c-.554.312-1.505.187-2.218.187-1.108.687-1.504 1.124-1.742 2.247-.08.686.08 4.243-.396 4.555-.475-.062-.634 0-.871-.124-.08-.75-.238-7.177 0-7.614.633.063.475-.062.95.25.317.312.158.936.158 1.373zm72.633-1.685c.238.062.95.187.95.312.16 1.497.555 6.365 0 7.613-.475 0-.554 0-1.029-.125-.238-.624-.158-7.426.08-7.8zm-123.327.062c.555.063.713 0 1.03.25.159.811.238 6.927-.08 7.55-.474 0-.633 0-1.029-.186-.158-.375-.079-6.99.08-7.614z"
      class="s0" />
    <path
      d="M11.604 32.937c-2.693-.624-7.208-4.43-8.475-6.365.396.25 1.901 1.81 2.456 2.247 1.98 1.56 4.198 2.558 6.574 3.62v.124c.396.125.554.187.95.437l-.079.187c-.713-.062-.713-.187-1.426-.25z"
      class="s2" />
    <path
      d="M210.812 15.65q.792-.186 1.268.375.317.624-.396.999-.476.187-.95-.063-.476-.25-.476-.686.08-.437.554-.624zm-123.089-.062q.792-.124 1.11.437.158.624-.555.936-.476.188-.95-.124-.476-.25-.318-.687.159-.437.713-.562z"
      class="s0" />
  </g>
</svg>