<svg width="234" height="44" xmlns="http://www.w3.org/2000/svg" version="1.2">
  <g>
    <g id="svg_1" fill="#ffff" stroke="null">
      <g id="Layer 1">
        <rect x="0" y="0" width="29" height="44" 
        fill="none" 
        stroke="#ffff" 
        stroke-width="0.8"/>
        <path style="transform: scale(0.45);" id="&lt;Compound Path&gt;" fill-rule="evenodd" class="s0" d="m61.83 98.39c-2.88-0.35-10.36-1.21-14.27-2.37-4.92-1.48-9.63-3.48-14.04-5.93q-3.32-1.84-6.41-4-3.1-2.16-5.95-4.63c-3.79-3.3-7.22-7.03-10.17-11.14-2.93-4.12-5.39-8.62-7.15-13.43-1.77-4.79-2.86-9.87-3.16-14.98q-0.11-1.92-0.07-3.84l0.02-0.99 0.05-0.96q0.07-0.99 0.18-1.98 0.43-3.96 1.63-7.78c1.59-5.06 4.22-9.83 7.78-13.79 3.54-3.98 7.97-7.14 12.84-9.14 2.43-1.01 4.96-1.72 7.52-2.15 2.54-0.43 5.13-0.57 7.64-0.46l1.65 0.09q1.04 0.05 2.06 0.18 2.06 0.27 4.03 0.87c2.63 0.79 5.11 2.03 7.3 3.63 4.37 3.19 7.58 7.85 8.93 12.98q0.51 1.93 0.69 3.9 0.08 0.98 0.08 1.96 0 0.49-0.02 0.98l-0.01 0.05c0 0.02 0 0.14 0 0.11l-0.01 0.1-0.01 0.22q-0.02 0.32-0.05 0.58c-0.3 2.87-1.43 5.62-3.17 7.83-1.72 2.21-4.03 3.9-6.59 4.86q-1.92 0.74-3.95 0.92-1 0.1-2 0.06l-0.16-0.01h-0.1l-0.28-0.02q-0.29-0.03-0.56-0.06-0.56-0.08-1.1-0.22c-2.9-0.71-5.37-2.74-6.59-5.36-0.61-1.3-0.92-2.74-0.91-4.15l0.01-0.26v-0.07c0-0.01 0.01-0.15 0.01-0.11l0.01-0.1 0.02-0.28q0.02-0.18 0.05-0.33 0.09-0.59 0.3-1.16 0.41-1.14 1.18-2.04c1.02-1.19 2.44-1.97 3.94-2.19q0.56-0.09 1.11-0.07h0.14c0.11 0 0.06 0 0.1 0l0.05 0.01 0.15 0.01 0.19 0.02q0.32 0.05 0.63 0.14c0.84 0.24 1.59 0.73 2.15 1.37 0.55 0.64 0.92 1.45 1.02 2.29q0.04 0.31 0.03 0.62v0.08c-0.01 0.1-0.01 0.05-0.01 0.09l-0.02 0.18c-0.01 0.15-0.04 0.25-0.07 0.38-0.12 0.49-2.9-0.4-2.88-0.47q0.02-0.07 0-0.13 0-0.02-0.01-0.01v0.01c0 0.01 0-0.03 0-0.04 0 0 0-0.07-0.01-0.01v-0.02q-0.02-0.09-0.04-0.18-0.12-0.34-0.4-0.56-0.27-0.21-0.6-0.24-0.07 0-0.15 0-0.01 0-0.01 0h-0.01l-0.05 0.01h-0.05c0.01 0-0.08 0 0 0l-0.06 0.01q-0.25 0.03-0.49 0.1c-0.61 0.19-1.13 0.6-1.44 1.12q-0.23 0.38-0.31 0.79-0.04 0.21-0.04 0.41 0 0.06 0.01 0.08v0.02l0.01 0.1v0.1c0 0.07 0-0.03 0-0.01l0.01 0.04 0.01 0.14q0.15 1.11 0.75 2.02c0.79 1.19 2.09 1.98 3.42 2.11q0.25 0.03 0.5 0.03c0.07 0 0.17 0 0.23-0.01 0.03 0 0.05 0 0.13-0.01h0.1c0.03 0-0.04 0 0.01 0l0.04-0.01q0.61-0.05 1.2-0.18 1.19-0.26 2.24-0.82c1.4-0.74 2.55-1.85 3.32-3.14 0.77-1.3 1.14-2.75 1.1-4.17q0-0.14-0.01-0.23l-0.01-0.18-0.01-0.1c0-0.06 0 0.02 0 0v-0.04q-0.03-0.32-0.07-0.63-0.07-0.63-0.2-1.25-0.25-1.24-0.7-2.39c-1.21-3.09-3.5-5.67-6.28-7.24-1.39-0.79-2.89-1.34-4.42-1.62q-1.15-0.22-2.32-0.24-0.58-0.01-1.15 0.03l-1.58 0.08c-3.56 0.22-6.92 1.16-9.87 2.75-2.95 1.58-5.47 3.83-7.4 6.5-1.92 2.66-3.27 5.73-3.95 8.96q-0.51 2.42-0.55 4.91-0.01 0.62 0.01 1.24l0.03 0.65 0.04 0.62q0.09 1.31 0.28 2.61c0.98 6.9 4.11 13.39 8.66 18.83 4.55 5.43 10.49 9.86 17.07 12.6 3.28 1.38 6.7 2.36 10.13 2.91 3.01 0.49 6.03 0.66 8.99 0.53l1.26-0.07v23.2zm-16.35-69.49q-0.01-0.08-0.02-0.17 0.05 0.09 0.02 0.17z"/>
      </g>
      <path stroke-linejoin=" round" stroke-width=" 0.4px" stroke=" #ffff" class="s0" style="transform: scaleY(1.2); transform-box: fill-box; transform-origin: center;" d="m176.99,15.401c2.694,-0.125 7.209,-0.374 9.268,1.123c3.01,2.31 3.01,6.179 0.238,8.675c-2.773,1.747 -6.179,1.373 -9.505,1.31c-0.159,-1.684 0,-4.243 -0.08,-5.99c0,-1.061 -0.079,-4.244 0.08,-5.118l-0.001,0zm1.347,10.297c3.01,-0.062 4.832,0.187 7.287,-1.31c2.06,-2.06 2.06,-5.554 -0.713,-7.302c-1.821,-1.186 -4.435,-0.874 -6.653,-0.811l0.079,9.423zm44.277,-7.488c0.555,0.124 0.713,0.187 0.792,0.623c-0.554,0.5 -1.188,0.188 -1.98,0.625c0.476,1.56 1.347,2.184 -0.158,3.806c-1.188,1.373 -5.307,0.188 -5.07,1.56c1.03,0.874 6.496,0.188 7.208,2.122c0.555,1.436 -1.821,2.497 -3.168,2.871c-1.98,0.312 -6.257,0.25 -6.178,-2.122c0.08,-1.186 0.871,-1.123 1.822,-1.747l-0.08,-0.25q-0.396,-0.25 -0.87,-0.561c-0.16,-0.874 1.029,-1.311 1.029,-1.436c-0.238,-0.811 -1.584,-1.435 -1.347,-2.62c0.159,-0.687 0.792,-1.374 1.505,-1.81c1.188,-0.687 3.09,-0.5 4.515,-0.313c0.792,-0.374 1.11,-0.499 1.98,-0.749l0,0.001zm-2.217,10.67c0.712,-0.311 1.425,-0.623 1.663,-1.247c-0.158,-1.56 -3.881,-1.498 -5.386,-1.436c-3.565,1.81 0.396,3.37 3.723,2.684l0,-0.001zm-1.268,-5.616c1.268,-0.25 2.139,-1.248 1.822,-2.309c-0.317,-1.06 -1.663,-1.685 -3.01,-1.435s-2.138,1.31 -1.822,2.309c0.317,1.06 1.664,1.685 3.01,1.435zm-68.277,-8.3c0.475,0.063 0.554,0.063 0.871,0.25c0.238,0.437 0.238,10.36 0.08,11.17c-0.317,0.125 -0.397,0.125 -0.793,0.063c-0.396,-0.312 -0.316,-0.562 -0.316,-1.123c-1.347,0.187 -1.664,2.496 -5.783,0.873c-4.752,-3.057 0.476,-10.546 5.703,-6.178c0.08,-1.06 -0.158,-4.306 0.238,-5.055zm-2.93,10.921c3.484,-0.873 2.772,-2.558 2.613,-4.93c-1.03,-1.06 -1.742,-1.435 -3.485,-1.31c-4.119,1.248 -3.327,6.365 0.871,6.24l0.001,0zm-43.644,-7.051c2.614,-0.25 4.277,0.312 5.227,2.433q0.476,0.75 0,1.56c-0.712,0.5 -6.099,0.25 -7.366,0.25c0.792,2.122 1.743,3.058 4.753,2.621c0.792,-0.312 1.267,-0.686 2.138,-0.437l0,0.25c-0.95,1.31 -3.723,1.435 -5.307,0.936c-2.693,-0.874 -3.485,-3.62 -2.376,-5.554c0.634,-1.123 1.505,-1.623 2.93,-2.06l0.001,0.001zm-2.139,3.37l6.178,0c-0.396,-1.873 -1.109,-2.871 -3.802,-2.56l-0.158,0c-1.584,0.687 -1.743,1.249 -2.218,2.56zm-39.129,-3.495c3.723,-0.188 4.674,1.81 4.753,4.306c-1.822,0.125 -5.545,0.062 -7.446,0.062q0.08,0.375 0.238,0.687c0.792,1.997 2.535,2.371 4.91,1.747c0.634,-0.312 1.03,-0.686 1.743,-0.312c0.238,1.56 -4.514,1.872 -6.02,0.998c-3.485,-2.059 -2.772,-6.802 1.822,-7.488zm-2.614,3.494l6.02,0c-0.396,-1.934 -0.95,-2.745 -3.722,-2.558c-1.585,0.561 -2.06,1.186 -2.298,2.558zm133.307,-3.369c2.773,-0.188 4.595,0.312 5.387,2.683q0.158,0.686 -0.317,1.31c-0.792,0.375 -5.782,0.25 -7.208,0.25c0.792,2.184 1.822,3.12 4.832,2.621c0.712,-0.374 1.188,-0.749 1.98,-0.5l0.079,0.25c-0.713,1.311 -4.04,1.56 -5.386,1c-4.119,-1.686 -3.565,-6.304 0.633,-7.615l0,0.001zm1.98,3.37l2.14,0c-0.397,-1.935 -1.03,-2.871 -3.882,-2.56c-1.742,0.687 -1.9,1.187 -2.376,2.622q2.06,-0.063 4.119,-0.063l-0.001,0.001zm-37.861,-3.37c2.931,-0.188 4.674,0.374 5.307,2.933q0.159,0.624 -0.237,1.123c-0.872,0.374 -5.862,0.187 -7.208,0.187c0.792,2.247 1.742,3.183 4.831,2.621c0.713,-0.374 1.188,-0.749 1.98,-0.5l0.08,0.188c-0.792,1.436 -3.565,1.56 -5.149,1.123q-1.822,-0.561 -2.614,-1.997c-1.267,-2.309 0,-4.68 3.01,-5.678zm2.06,3.432l2.06,0c-0.555,-1.935 -1.11,-2.87 -3.882,-2.621c-1.267,0.499 -1.743,0.873 -2.218,1.997q-0.08,0.312 -0.238,0.624l4.278,0zm-30.892,-3.495l0.238,0c5.386,-0.25 4.277,2.559 4.436,5.617c0.08,0.624 0.317,1.248 0.396,1.934c-0.317,0.312 -0.159,0.25 -0.634,0.375q-0.871,-0.437 -0.871,-1.248l0,-0.125c-1.901,1.373 -3.644,1.934 -5.94,0.749c-0.476,-0.375 -0.951,-1.061 -0.872,-1.56c0.08,-2.372 4.673,-2.497 6.654,-2.56c-0.476,-4.555 -3.882,-1.122 -5.941,-1.871c-0.317,-0.562 1.98,-1.186 2.535,-1.31l-0.001,-0.001zm-0.158,7.114c1.743,-0.062 2.218,-0.25 3.406,-1.248c0.159,-0.749 0.159,-1.185 0.159,-1.997l-1.664,0.063c-1.267,0.187 -2.455,0.312 -3.247,1.185c-0.95,0.999 0.316,1.685 1.346,1.997zm-55.208,-7.176c4.594,-0.063 3.485,3.182 3.644,5.616c0,0.874 0.713,1.748 0,2.31c-0.713,0 -0.95,-0.812 -1.11,-1.249q-0.316,0.25 -0.712,0.5c-1.822,1.248 -4.198,1.123 -5.703,-0.313c-1.267,-3.37 3.327,-3.557 6.337,-3.62c-0.634,-4.867 -4.832,-0.686 -5.862,-1.871c0.238,-1.124 2.218,-1.249 3.406,-1.373zm-1.742,6.99c2.138,0.374 2.693,-0.063 4.118,-1.249c0.08,-0.5 0.159,-1.248 0,-1.685q-0.237,-0.062 -0.475,-0.062c-1.267,0.062 -4.752,0.312 -4.752,1.872c0,0.374 0.633,0.874 1.109,1.123l0,0.001zm45.544,-10.547c1.743,-0.063 4.753,-0.063 5.545,1.372c0.158,0.25 0.079,0.188 0,0.437c-0.95,0.188 -1.268,-0.187 -2.139,-0.499c-7.445,-2.496 -10.851,6.428 -4.594,8.924c1.901,0.749 3.96,0.5 5.94,-0.062c-0.079,-0.812 0.16,-2.933 -0.237,-3.495l-0.554,-0.062c-0.872,0 -1.901,0.124 -2.456,-0.312l0.08,-0.375c0.712,-0.374 3.247,-0.25 4.356,-0.187c0.158,0.936 0.475,3.932 -0.159,4.743q-0.633,0.749 -1.821,0.873c-7.684,1.373 -12.278,-3.869 -8.476,-9.11c0.872,-1.249 2.693,-1.935 4.515,-2.247zm-72.237,0.062q1.504,-0.062 3.01,0.25q1.188,0.187 1.821,0.936c0,0.374 0.08,0.25 -0.158,0.561c-0.396,0.063 -0.95,-0.124 -1.347,-0.25c-7.604,-2.745 -11.089,5.118 -5.703,8.488c1.347,0.811 3.406,0.686 5.07,0.374c0.712,-0.374 1.267,-0.81 2.217,-0.624l0.159,0.188c-0.713,1.997 -6.812,1.934 -8.713,0.624c-4.753,-3.433 -3.327,-9.86 3.644,-10.547zm120.475,3.557c0.475,0 0.475,0 0.95,0.125c0.476,0.624 0,0.562 0.317,1.123c0.713,-0.187 1.347,-0.873 2.139,-1.123c1.663,-0.562 3.406,-0.063 4.119,1.186c0.633,0.998 1.109,6.178 -0.08,6.552l-0.158,0c-0.871,-0.749 -0.554,-3.744 -0.554,-4.93c-0.08,-0.936 -0.317,-1.622 -1.664,-1.997c-1.426,-0.374 -3.406,0.437 -3.643,1.685c-0.476,1.623 0.158,3.308 -0.238,4.868q-0.158,0.374 -0.634,0.5c-0.871,-0.188 -0.713,-7.178 -0.554,-7.989zm59.96,0c0.396,0 0.555,0 0.95,0.125c0.476,0.562 0.08,0.312 0.397,0.998c1.188,-0.748 1.9,-1.248 3.564,-1.248c2.297,-0.062 3.248,2.247 3.09,3.682c-0.08,0.874 0.316,3.557 -0.238,4.181c-0.396,0.063 -0.396,0.063 -0.792,-0.062c-0.317,-0.437 -0.159,-4.244 -0.238,-5.055c-0.554,-2.559 -3.564,-2.184 -5.307,-0.5c-0.238,1.374 0.158,4.806 -0.554,5.555c-0.476,0.187 -0.238,0.125 -0.713,0.062c-0.238,-0.374 -0.317,-7.301 -0.159,-7.738zm-21.861,-0.062c1.109,-0.063 3.881,0.062 3.723,1.31c-0.872,0.5 -3.644,-1.435 -4.832,0.063c-1.901,2.433 5.228,1.934 5.307,4.18c0,1.873 -1.663,2.31 -3.723,2.497c-1.584,0 -2.376,-0.374 -3.485,-1.186l0,-0.373c0.713,-0.125 3.09,0.562 4.198,0.686c0.475,-0.124 1.109,-0.312 1.347,-0.624c1.98,-2.496 -5.07,-1.81 -5.307,-4.118c-0.159,-1.623 1.109,-2.185 2.772,-2.434l0,-0.001zm-108.594,6.802c0.554,-1.123 2.851,-5.991 3.723,-6.677c0.396,-0.063 0.237,-0.063 0.633,0.124q0.08,0.562 -0.237,1.124q-1.03,1.934 -1.98,3.806c-0.476,0.874 -1.11,2.497 -2.377,2.746c-1.109,-0.561 -3.485,-5.803 -4.119,-7.052c-0.237,-0.436 0,-0.561 0.238,-0.873l0.554,0.124c0.713,0.562 3.01,5.492 3.565,6.678zm-14.02,-9.111l0.792,0.062c0.634,0.5 0.396,1.498 0.396,2.434c0.792,0 2.297,-0.187 2.535,0.5c-0.713,0.56 -1.664,0.436 -2.614,0.374c0.237,1.373 -0.555,5.055 0.792,5.928c1.03,0.25 1.346,-0.374 2.376,0.25c0,0.062 -0.237,0.25 -0.237,0.25c-5.466,2.308 -4.12,-4.057 -4.12,-6.428c-0.87,0 -1.346,0.124 -1.821,-0.437l0.158,-0.187c0.476,-0.312 1.03,-0.25 1.664,-0.25q0,-1.248 0.079,-2.496zm-26.931,3.931c0.634,-0.624 1.268,-1.31 2.297,-1.56c0.792,-0.125 1.664,-0.062 1.743,0.624c-1.03,1.123 -3.565,-0.686 -4.04,2.808c-0.079,0.812 0.396,4.244 -0.713,4.431c-0.95,-0.624 -0.792,-7.426 -0.475,-7.863c0.396,0 0.555,0 0.871,0.25q0.396,0.561 0.317,1.31zm83.882,0.063c0.792,-0.874 2.297,-2.185 3.88,-1.373q0.318,0.187 0.238,0.499c-0.554,0.312 -1.505,0.187 -2.218,0.187c-1.108,0.687 -1.504,1.124 -1.742,2.247c-0.08,0.686 0.08,4.243 -0.396,4.555c-0.475,-0.062 -0.634,0 -0.871,-0.124c-0.08,-0.75 -0.238,-7.177 0,-7.614c0.633,0.063 0.475,-0.062 0.95,0.25c0.317,0.312 0.158,0.936 0.158,1.373l0.001,0zm72.633,-1.685c0.238,0.062 0.95,0.187 0.95,0.312c0.16,1.497 0.555,6.365 0,7.613c-0.475,0 -0.554,0 -1.029,-0.125c-0.238,-0.624 -0.158,-7.426 0.08,-7.8l-0.001,0zm-123.327,0.062c0.555,0.063 0.713,0 1.03,0.25c0.159,0.811 0.238,6.927 -0.08,7.55c-0.474,0 -0.633,0 -1.029,-0.186c-0.158,-0.375 -0.079,-6.99 0.08,-7.614l-0.001,0z" id="text"/>
      <path id="svg_9" class="s0" d="m210.812,15.65q0.792,-0.186 1.268,0.375q0.317,0.624 -0.396,0.999q-0.476,0.187 -0.95,-0.063q-0.476,-0.25 -0.476,-0.686q0.08,-0.437 0.554,-0.624l0,-0.001zm-123.089,-0.062q0.792,-0.124 1.11,0.437q0.158,0.624 -0.555,0.936q-0.476,0.188 -0.95,-0.124q-0.476,-0.25 -0.318,-0.687q0.159,-0.437 0.713,-0.562z"/>
    </g>
  </g>
</svg>
